<?xml version="1.0" encoding="UTF-8" standalone="no"?>
<!DOCTYPE svg PUBLIC "-//W3C//DTD SVG 1.1//EN" "http://www.w3.org/Graphics/SVG/1.1/DTD/svg11.dtd">
<svg width="100%" height="100%" viewBox="0 0 2732 800" version="1.1" xmlns="http://www.w3.org/2000/svg" xmlns:xlink="http://www.w3.org/1999/xlink" xml:space="preserve" xmlns:serif="http://www.serif.com/" style="fill-rule:evenodd;clip-rule:evenodd;stroke-linejoin:round;stroke-miterlimit:2;">
    <g transform="matrix(0.31076,0,0,0.31076,76.7956,146.111)">
        <g transform="matrix(9.18346,0,0,9.18346,-10549.9,-4758.18)">
            <g>
                <path d="M1188.49,564.388C1186.05,557.697 1183.56,551.207 1181.02,544.977C1188.18,544.504 1195.16,544.481 1201.76,545.354C1199.2,536.02 1197.74,529.954 1196.68,526.823C1208.26,528.431 1219.26,529.814 1229.27,532.752C1245.58,537.542 1259.76,544.881 1273.2,552.295C1253.57,546.041 1219.28,536.566 1209,536.047C1213.02,549.226 1225.86,583.871 1237.93,652.223C1272.56,654.101 1290.65,662.153 1304.19,672.027C1305.05,672.367 1305.92,672.878 1306.9,673.672L1306.34,673.632C1306.75,673.951 1307.16,674.272 1307.57,674.595C1306.95,674.253 1306.33,673.918 1305.71,673.589L1305.38,673.567C1305.58,673.715 1305.77,673.866 1305.95,674.017C1305.14,673.823 1304.32,673.634 1303.5,673.451C1268.02,671.407 1237.04,677.802 1209.59,687.354C1200.41,644.8 1188.66,603.033 1165.51,564.746L1188.49,564.388ZM1190.08,568.767L1180.54,571.071C1194.68,598.736 1206.25,635.13 1215.98,677.75C1228.15,673.421 1241.61,670.436 1254.9,669.065C1243.08,669.515 1231.69,671.021 1220.92,673.306C1212.19,638.519 1201.75,601.449 1190.08,568.767ZM1203.53,550.142C1198.59,550.434 1195.91,551.082 1193.68,551.262C1202.78,570.529 1213.33,605.637 1227.79,663.112C1257.01,661.951 1281.65,664.316 1295.91,669.037C1277.86,661.699 1257.13,658.785 1231.85,658.928C1225.28,633.263 1212.01,581.21 1203.53,550.142Z" style="fill:white;"/>
                <g transform="matrix(-1,0,0,1,2620.7,0)">
                    <path d="M1188.49,564.388C1186.05,557.697 1183.56,551.207 1181.02,544.977C1188.18,544.504 1195.16,544.481 1201.76,545.354C1199.2,536.02 1197.74,529.954 1196.68,526.823C1208.26,528.431 1219.26,529.814 1229.27,532.752C1245.58,537.542 1259.76,544.881 1273.2,552.295C1253.57,546.041 1219.28,536.566 1209,536.047C1213.02,549.226 1225.86,583.871 1237.93,652.223C1272.56,654.101 1290.65,662.153 1304.19,672.027C1305.05,672.367 1305.92,672.878 1306.9,673.672L1306.34,673.632C1306.75,673.951 1307.16,674.272 1307.57,674.595C1306.95,674.253 1306.33,673.918 1305.71,673.589L1305.38,673.567C1305.58,673.715 1305.77,673.866 1305.95,674.017C1305.14,673.823 1304.32,673.634 1303.5,673.451C1268.02,671.407 1237.04,677.802 1209.59,687.354C1200.41,644.8 1188.66,603.033 1165.51,564.746L1188.49,564.388ZM1190.08,568.767L1180.54,571.071C1194.68,598.736 1206.25,635.13 1215.98,677.75C1228.15,673.421 1241.61,670.436 1254.9,669.065C1243.08,669.515 1231.69,671.021 1220.92,673.306C1212.19,638.519 1201.75,601.449 1190.08,568.767ZM1203.53,550.142C1198.59,550.434 1195.91,551.082 1193.68,551.262C1202.78,570.529 1213.33,605.637 1227.79,663.112C1257.01,661.951 1281.65,664.316 1295.91,669.037C1277.86,661.699 1257.13,658.785 1231.85,658.928C1225.28,633.263 1212.01,581.21 1203.53,550.142Z" style="fill:white;"/>
                </g>
            </g>
            <g transform="matrix(1,0,0,1,-17.3945,-5.18419)">
                <text x="1280.86px" y="627.596px" style="font-family:'AmericanTypewriter', 'American Typewriter', serif;font-size:138.271px;fill:rgb(33,33,33);">B</text>
            </g>
        </g>
        <g transform="matrix(6.43583,0,0,6.43583,-773.8,-254.449)">
            <text x="754.832px" y="272.12px" style="font-family:'Optima-Bold', 'Optima';font-weight:700;font-size:52.904px;fill:rgb(33,33,33);">BOOK REVIEW CLUB</text>
        </g>
        <g transform="matrix(22.8091,0,0,22.8091,-23897.5,-15900.7)">
            <text x="1186.41px" y="741.164px" style="font-family:'ArialMT', 'Arial', sans-serif;font-size:39.867px;fill:white;">[</text>
            <text x="1208.57px" y="741.164px" style="font-family:'HelveticaNeue-Medium', 'Helvetica Neue', sans-serif;font-weight:500;font-size:39.867px;fill:rgb(86,161,190);">bib</text>
            <text x="1266.9px" y="741.164px" style="font-family:'Georgia', serif;font-size:39.867px;fill:white;">.</text>
            <text x="1277.64px" y="741.164px" style="font-family:'HelveticaNeue-Medium', 'Helvetica Neue', sans-serif;font-weight:500;font-size:39.867px;fill:rgb(225,184,84);">lio</text>
            <text x="1320.5px" y="741.164px" style="font-family:'Georgia', serif;font-size:39.867px;fill:white;">.</text>
            <text x="1331.24px" y="741.164px" style="font-family:'HelveticaNeue-Medium', 'Helvetica Neue', sans-serif;font-weight:500;font-size:39.867px;fill:rgb(196,119,95);">ﬁle</text>
            <text x="1396.27px" y="741.164px" style="font-family:'ArialMT', 'Arial', sans-serif;font-size:39.867px;fill:white;">]</text>
        </g>
    </g>
</svg>
